<?xml version="1.0" encoding="UTF-8" standalone="no"?>
<!DOCTYPE svg PUBLIC "-//W3C//DTD SVG 1.1//EN" "http://www.w3.org/Graphics/SVG/1.1/DTD/svg11.dtd">
<svg width="100%" height="100%" viewBox="0 0 138 131" version="1.1" xmlns="http://www.w3.org/2000/svg" xmlns:xlink="http://www.w3.org/1999/xlink" xml:space="preserve" xmlns:serif="http://www.serif.com/" style="fill-rule:evenodd;clip-rule:evenodd;stroke-linejoin:round;stroke-miterlimit:2;">
    <g transform="matrix(1,0,0,1,-399,-78)">
        <g transform="matrix(1.06667,0,0,1,0,0)">
            <g id="sistemas-logo" transform="matrix(0.221483,0,0,0.236248,374.068,77.862)">
                <g>
                    <path d="M321.87,5.93C323.7,4 325.66,2.18 327.81,0.61C330.16,0.59 332.67,0.72 334.22,2.75C371.6,40.4 408.78,78.25 446.11,115.95C450.97,121.08 456.31,125.78 460.8,131.26C460.79,132.76 460.79,134.26 460.82,135.77C458.77,138.33 456.43,140.64 454.06,142.91C415.94,180.84 377.81,218.78 339.71,256.74C336.98,259.4 334.44,262.3 331.22,264.41C326.61,264.86 323.86,260.89 320.92,258.1C292.95,230.71 264.98,203.34 236.98,176C223.44,162.54 209.52,149.45 196.2,135.78C196.21,134.29 196.21,132.8 196.2,131.32C197.3,130.04 198.39,128.77 199.57,127.56C240.39,87.07 281.09,46.46 321.87,5.93M329.36,12.27C288.6,52.46 248.26,93.12 207.47,133.28C223.05,149.09 239.16,164.4 254.98,179.99C279.88,204.34 304.73,228.75 329.7,253.03C369.73,213.2 409.65,173.27 449.8,133.56C410.05,93.21 370.23,52.92 330.39,12.65C330.13,12.56 329.62,12.36 329.36,12.27Z" style="fill:rgb(79,91,135);fill-rule:nonzero;"/>
                    <path d="M319.01,47L331.99,47C332.02,58.33 331.99,69.66 332,80.99C344,81.03 356,80.98 367.99,81.01C368,85.34 368,89.67 367.99,94C344.99,94 322,93.99 299,94.01L299,126.99C333,127.01 366.99,127 400.99,127C401.01,131.33 401.01,135.66 401,139.99C390.67,140.03 380.33,139.98 370,140.01C370.01,157.01 370,174 370,191L332.01,191C331.98,202 332.02,213 331.99,224C327.66,224 323.33,224 319.01,223.99C318.98,213 319.01,202 318.99,191.01C304.33,190.99 289.67,191 275.01,191C274.99,186.67 275,182.34 275.01,178C302.34,177.99 329.67,178 356.99,178C357.01,165.33 357,152.67 356.99,140L257,140C257,135.67 257,131.33 256.99,127L285.99,127C286.01,111.66 285.99,96.33 286,81C297,81 308,81.01 319,80.99C319,69.66 318.99,58.33 319.01,47Z" style="fill:rgb(79,91,135);fill-rule:nonzero;"/>
                    <path d="M319,103L398.99,103C399.01,107.33 399,111.66 399.01,115.99C372.34,116.01 345.67,116 319,116L319,103Z" style="fill:rgb(79,91,135);fill-rule:nonzero;"/>
                    <path d="M263.01,151L346,151L346,164C318.34,163.99 290.67,164.01 263.01,164C262.99,159.67 262.99,155.33 263.01,151Z" style="fill:rgb(79,91,135);fill-rule:nonzero;"/>
                    <path d="M329.36,12.27C329.62,12.36 330.13,12.56 330.39,12.65C370.23,52.92 410.05,93.21 449.8,133.56C409.65,173.27 369.73,213.2 329.7,253.03C304.73,228.75 279.88,204.34 254.98,179.99C239.16,164.4 223.05,149.09 207.47,133.28C248.26,93.12 288.6,52.46 329.36,12.27M319.01,47C318.99,58.33 319,69.66 319,80.99C308,81.01 297,81 286,81C285.99,96.33 286.01,111.66 285.99,127L256.99,127C257,131.33 257,135.67 257,140L356.99,140C357,152.67 357.01,165.33 356.99,178C329.67,178 302.34,177.99 275.01,178C275,182.34 274.99,186.67 275.01,191C289.67,191 304.33,190.99 318.99,191.01C319.01,202 318.98,213 319.01,223.99C323.33,224 327.66,224 331.99,224C332.02,213 331.98,202 332.01,191L370,191C370,174 370.01,157.01 370,140.01C380.33,139.98 390.67,140.03 401,139.99C401.01,135.66 401.01,131.33 400.99,127C366.99,127 333,127.01 299,126.99L299,94.01C322,93.99 344.99,94 367.99,94C368,89.67 368,85.34 367.99,81.01C356,80.98 344,81.03 332,80.99C331.99,69.66 332.02,58.33 331.99,47L319.01,47M319,103L319,116C345.67,116 372.34,116.01 399.01,115.99C399,111.66 399.01,107.33 398.99,103L319,103M263.01,151C262.99,155.33 262.99,159.67 263.01,164C290.67,164.01 318.34,163.99 346,164L346,151L263.01,151Z" style="fill-rule:nonzero;"/>
                    <path d="M129.43,111.46C131.62,108.63 136.41,108.45 138.68,111.27C179.53,152.43 220.16,193.82 261,234.99C262.57,236.55 264.02,238.22 265.42,239.94C265.42,241.39 265.44,242.83 265.46,244.28C264.53,245.41 263.6,246.54 262.59,247.6C221.31,288.63 180.08,329.72 138.77,370.72C136.68,373.4 132.2,373.68 129.94,371.09C87.76,329.91 45.66,288.63 3.48,247.44C2.47,246.42 1.55,245.32 0.63,244.22C0.66,242.83 0.68,241.43 0.69,240.04C1.66,238.87 2.62,237.68 3.68,236.6C45.63,194.92 87.49,153.15 129.43,111.46M132.3,122.24C92.21,162.19 52.13,202.17 11.94,242.03C52.58,281.95 93.33,321.76 134.11,361.55C174.3,322.09 213.86,281.98 254.1,242.58C253.7,241.78 253.21,241.03 252.65,240.34C213.44,200.84 174.46,161.11 135.26,121.61C134.3,120.24 133.12,121.46 132.3,122.24Z" style="fill:rgb(160,155,216);fill-rule:nonzero;"/>
                    <path d="M123.03,156C127.34,156.01 131.66,156.01 135.97,156.01C136.02,167 135.95,178 136.01,188.99C148,189.04 159.99,189.01 171.98,189C172.01,193.33 171.99,197.65 171.98,201.98C148.99,202.01 126,201.97 103.01,202C102.97,213.33 102.99,224.66 103.01,236C137,236.04 170.99,235.98 204.98,236.01C205.02,240.34 205.02,244.67 204.96,249C194.64,248.98 184.32,248.99 174,249.01C173.98,265.99 173.99,282.98 173.99,299.97C161.33,300.03 148.67,299.96 136.01,300C135.97,310.99 136.01,321.98 136,332.97C131.66,333.02 127.33,333.03 122.99,332.96C123.01,321.97 123.03,310.98 122.99,300C108.33,299.95 93.66,300.04 79,299.96C79.02,295.64 79,291.33 79.01,287.02C106.34,286.97 133.68,287.06 161.01,286.97C160.97,274.31 161.05,261.65 160.99,248.99C127.67,249 94.35,248.96 61.04,249.01C61,244.68 61.01,240.36 61,236.03C70.66,235.98 80.32,236.01 89.98,236.01C90.05,220.34 89.99,204.68 90.01,189.02C101.01,188.98 112.01,189.04 123.01,188.99C123.05,177.99 122.95,167 123.03,156Z" style="fill:rgb(160,155,216);fill-rule:nonzero;"/>
                    <path d="M123,211.03C149.65,210.97 176.31,211.04 202.97,211C203,215.33 202.99,219.65 202.99,223.98C176.33,224 149.67,224 123.01,223.97C123.01,219.66 122.99,215.34 123,211.03Z" style="fill:rgb(160,155,216);fill-rule:nonzero;"/>
                    <path d="M67,260.02C94.33,259.99 121.65,260.02 148.97,260C148.99,264.33 149,268.65 149,272.98C121.67,273 94.34,273 67.01,272.98C67.01,268.66 67,264.34 67,260.02Z" style="fill:rgb(160,155,216);fill-rule:nonzero;"/>
                    <path d="M132.3,122.24C133.12,121.46 134.3,120.24 135.26,121.61C174.46,161.11 213.44,200.84 252.65,240.34C253.21,241.03 253.7,241.78 254.1,242.58C213.86,281.98 174.3,322.09 134.11,361.55C93.33,321.76 52.58,281.95 11.94,242.03C52.13,202.17 92.21,162.19 132.3,122.24M123.03,156C122.95,167 123.05,177.99 123.01,188.99C112.01,189.04 101.01,188.98 90.01,189.02C89.99,204.68 90.05,220.34 89.98,236.01C80.32,236.01 70.66,235.98 61,236.03C61.01,240.36 61,244.68 61.04,249.01C94.35,248.96 127.67,249 160.99,248.99C161.05,261.65 160.97,274.31 161.01,286.97C133.68,287.06 106.34,286.97 79.01,287.02C79,291.33 79.02,295.64 79,299.96C93.66,300.04 108.33,299.95 122.99,300C123.03,310.98 123.01,321.97 122.99,332.96C127.33,333.03 131.66,333.02 136,332.97C136.01,321.98 135.97,310.99 136.01,300C148.67,299.96 161.33,300.03 173.99,299.97C173.99,282.98 173.98,265.99 174,249.01C184.32,248.99 194.64,248.98 204.96,249C205.02,244.67 205.02,240.34 204.98,236.01C170.99,235.98 137,236.04 103.01,236C102.99,224.66 102.97,213.33 103.01,202C126,201.97 148.99,202.01 171.98,201.98C171.99,197.65 172.01,193.33 171.98,189C159.99,189.01 148,189.04 136.01,188.99C135.95,178 136.02,167 135.97,156.01C131.66,156.01 127.34,156.01 123.03,156M123,211.03C122.99,215.34 123.01,219.66 123.01,223.97C149.67,224 176.33,224 202.99,223.98C202.99,219.65 203,215.33 202.97,211C176.31,211.04 149.65,210.97 123,211.03M67,260.02C67,264.34 67.01,268.66 67.01,272.98C94.34,273 121.67,273 149,272.98C149,268.65 148.99,264.33 148.97,260C121.65,260.02 94.33,259.99 67,260.02Z" style="fill-rule:nonzero;"/>
                    <path d="M445.2,180.18C447.52,177.26 452.49,177.24 454.79,180.21C490.98,216.7 527.02,253.35 563.18,289.87C569.17,296.26 575.87,302.01 581.32,308.87C581.28,310.25 581.25,311.63 581.23,313.01C573.04,322.2 563.87,330.48 555.28,339.29C525.87,368.57 496.49,397.86 467.04,427.1C462.11,431.91 457.45,437.02 452.18,441.47C450.72,441.46 449.28,441.46 447.84,441.48C438.73,433.54 430.48,424.66 421.72,416.34C386.64,381.92 351.33,347.71 316.39,313.14C316.33,310.72 316.2,308.01 318.35,306.38C360.62,264.31 402.9,222.24 445.2,180.18M328.67,309.69C327.29,310.61 328.65,311.87 329.42,312.58C369.64,351.82 409.67,391.27 450.01,430.39C489.67,391.24 528.97,351.73 568.53,312.48C569.72,311.6 570.38,310.21 568.86,309.24C529.05,269.38 489.82,228.93 449.95,189.13C409.47,229.25 369.03,269.43 328.67,309.69Z" style="fill:rgb(82,77,138);fill-rule:nonzero;"/>
                    <path d="M439,225C443.33,225 447.66,225 452,224.99C452,235.99 451.99,246.99 452.01,257.99C464.01,258.01 476.01,258 488.01,258C488,262.33 487.99,266.67 488,271C465.01,270.99 442.01,271 419.01,271C418.99,282 418.99,293 419.01,304L522.01,304C522,308.33 522,312.67 522,317.01C511.34,316.99 500.68,317.01 490.03,317C489.96,334 490.01,351 490,368C477.34,368 464.67,367.99 452.01,368.01C451.99,379.34 452,390.67 452,402L438.99,402C439,390.67 439.02,379.33 438.98,368L395,368C395.01,363.66 394.99,359.32 394.99,354.99C422.32,355.02 449.65,354.99 476.98,355C477.02,342.34 477,329.67 476.99,317.01C443.66,316.99 410.33,317 377,317C377,312.67 376.99,308.33 377,304C386.66,303.99 396.33,304.02 406,303.98L406,258L438.99,258C439.01,247 439,236 439,225Z" style="fill:rgb(82,77,138);fill-rule:nonzero;"/>
                    <path d="M439,279.99C465.66,280.01 492.33,280 519,279.99C519,284.33 518.99,288.67 519,293C492.33,292.99 465.67,293 439,293L439,279.99Z" style="fill:rgb(82,77,138);fill-rule:nonzero;"/>
                    <rect x="384" y="329" width="82" height="13" style="fill:rgb(82,77,138);fill-rule:nonzero;"/>
                    <path d="M328.67,309.69C369.03,269.43 409.47,229.25 449.95,189.13C489.82,228.93 529.05,269.38 568.86,309.24C570.38,310.21 569.72,311.6 568.53,312.48C528.97,351.73 489.67,391.24 450.01,430.39C409.67,391.27 369.64,351.82 329.42,312.58C328.65,311.87 327.29,310.61 328.67,309.69M439,225C439,236 439.01,247 438.99,258L406,258L406,303.98C396.33,304.02 386.66,303.99 377,304C376.99,308.33 377,312.67 377,317C410.33,317 443.66,316.99 476.99,317.01C477,329.67 477.02,342.34 476.98,355C449.65,354.99 422.32,355.02 394.99,354.99C394.99,359.32 395.01,363.66 395,368L438.98,368C439.02,379.33 439,390.67 438.99,402L452,402C452,390.67 451.99,379.34 452.01,368.01C464.67,367.99 477.34,368 490,368C490.01,351 489.96,334 490.03,317C500.68,317.01 511.34,316.99 522,317.01C522,312.67 522,308.33 522.01,304L419.01,304C418.99,293 418.99,282 419.01,271C442.01,271 465.01,270.99 488,271C487.99,266.67 488,262.33 488.01,258C476.01,258 464.01,258.01 452.01,257.99C451.99,246.99 452,235.99 452,224.99C447.66,225 443.33,225 439,225M439,279.99L439,293C465.67,293 492.33,292.99 519,293C518.99,288.67 519,284.33 519,279.99C492.33,280 465.66,280.01 439,279.99M384,329L384,342L466,342L466,329L384,329Z" style="fill:rgb(1,9,31);fill-rule:nonzero;"/>
                    <path d="M251.73,290.7C254.16,287.86 258.78,288.18 261.02,291.08C296.62,327.11 332.23,363.14 367.79,399.22C374.26,406.1 381.48,412.33 387.42,419.68C387.35,421.12 387.3,422.56 387.27,424C378.41,433.53 368.89,442.43 359.77,451.7C332.38,478.98 305.01,506.28 277.59,533.53C271.08,539.79 265.07,546.6 258.13,552.38C253.41,553.35 250.61,549.21 247.61,546.41C217.8,517.19 187.93,488.03 158.11,458.83C146.32,447.19 134.24,435.83 122.7,423.94C122.66,422.5 122.61,421.07 122.56,419.64C124.91,416.66 127.69,414.07 130.38,411.4C170.84,371.18 211.24,330.89 251.73,290.7M133.94,421.69C173.17,459.92 212.28,498.29 251.45,536.58C253.04,538.17 254.57,539.86 256.51,541.04C287.63,509.63 319.13,478.6 350.41,447.35C358.94,438.63 367.9,430.32 376.19,421.38C336.02,381.06 296.27,340.32 256.11,300.01C215.42,340.6 174.49,380.97 133.94,421.69Z" style="fill:rgb(241,242,255);fill-rule:nonzero;"/>
                    <path d="M246,335.01C250.33,334.98 254.65,334.99 258.98,335C259.03,346.33 258.97,357.67 259.01,369C270.67,369.01 282.33,368.99 293.99,369C294.01,373.33 294,377.66 293.99,381.99C271,382.01 248,381.99 225,382.01C225,393 224.99,404 225.01,415L328,415C328.01,419.33 328,423.65 328,427.98C317.67,428.02 307.34,427.99 297.01,428C296.99,445 297.01,462 297,479C284.33,479.01 271.67,478.99 259,479.01C258.99,490 259.01,501 258.99,512C254.66,512 250.33,512.01 246,511.99C246,501 245.99,490.01 246.01,479.02C231.01,478.97 216.01,479.02 201.01,478.99C201,474.66 200.98,470.33 201.01,466C228.67,465.99 256.33,466 283.99,466C283.99,453.33 284.03,440.66 283.98,427.99C250.32,428 216.66,428.01 183,427.99C182.99,423.66 182.99,419.33 183.01,415.01C192.67,414.99 202.33,415.01 212,414.99C212.01,399.66 211.99,384.33 212.01,369C223.34,368.99 234.67,369.01 246,369C246.01,357.67 245.99,346.34 246,335.01Z" style="fill:rgb(241,242,255);fill-rule:nonzero;"/>
                    <path d="M245.99,391.01C272.33,390.99 298.67,390.99 325,391.02C325,395.34 325,399.67 324.99,404C298.67,404.01 272.34,404 246.02,404C245.99,399.67 245.99,395.34 245.99,391.01Z" style="fill:rgb(241,242,255);fill-rule:nonzero;"/>
                    <path d="M190,440.02C217.33,439.98 244.66,440 271.99,440C272.01,444.33 272.01,448.66 271.99,453C244.66,453 217.33,453.01 190.01,452.99C189.99,448.67 189.99,444.34 190,440.02Z" style="fill:rgb(241,242,255);fill-rule:nonzero;"/>
                    <path d="M133.94,421.69C174.49,380.97 215.42,340.6 256.11,300.01C296.27,340.32 336.02,381.06 376.19,421.38C367.9,430.32 358.94,438.63 350.41,447.35C319.13,478.6 287.63,509.63 256.51,541.04C254.57,539.86 253.04,538.17 251.45,536.58C212.28,498.29 173.17,459.92 133.94,421.69M246,335.01C245.99,346.34 246.01,357.67 246,369C234.67,369.01 223.34,368.99 212.01,369C211.99,384.33 212.01,399.66 212,414.99C202.33,415.01 192.67,414.99 183.01,415.01C182.99,419.33 182.99,423.66 183,427.99C216.66,428.01 250.32,428 283.98,427.99C284.03,440.66 283.99,453.33 283.99,466C256.33,466 228.67,465.99 201.01,466C200.98,470.33 201,474.66 201.01,478.99C216.01,479.02 231.01,478.97 246.01,479.02C245.99,490.01 246,501 246,511.99C250.33,512.01 254.66,512 258.99,512C259.01,501 258.99,490 259,479.01C271.67,478.99 284.33,479.01 297,479C297.01,462 296.99,445 297.01,428C307.34,427.99 317.67,428.02 328,427.98C328,423.65 328.01,419.33 328,415L225.01,415C224.99,404 225,393 225,382.01C248,381.99 271,382.01 293.99,381.99C294,377.66 294.01,373.33 293.99,369C282.33,368.99 270.67,369.01 259.01,369C258.97,357.67 259.03,346.33 258.98,335C254.65,334.99 250.33,334.98 246,335.01M245.99,391.01C245.99,395.34 245.99,399.67 246.02,404C272.34,404 298.67,404.01 324.99,404C325,399.67 325,395.34 325,391.02C298.67,390.99 272.33,390.99 245.99,391.01M190,440.02C189.99,444.34 189.99,448.67 190.01,452.99C217.33,453.01 244.66,453 271.99,453C272.01,448.66 272.01,444.33 271.99,440C244.66,440 217.33,439.98 190,440.02Z" style="fill:rgb(1,9,31);fill-rule:nonzero;"/>
                </g>
            </g>
        </g>
    </g>
</svg>
